<mxfile host="app.diagrams.net" agent="Mozilla/5.0 (Windows NT 10.0; Win64; x64) AppleWebKit/537.36 (KHTML, like Gecko) Chrome/129.0.0.0 Safari/537.36" version="24.7.7">
  <diagram name="Página-1" id="obd65PtXWaLg58p_nZa3">
    <mxGraphModel dx="1862" dy="1767" grid="1" gridSize="10" guides="1" tooltips="1" connect="1" arrows="1" fold="1" page="1" pageScale="1" pageWidth="827" pageHeight="1169" math="0" shadow="0">
      <root>
        <mxCell id="0" />
        <mxCell id="1" parent="0" />
        <mxCell id="HASMPIRfKc85Ds4nCASX-79" style="edgeStyle=orthogonalEdgeStyle;rounded=0;orthogonalLoop=1;jettySize=auto;html=1;entryX=0;entryY=0.5;entryDx=0;entryDy=0;" edge="1" parent="1" source="HASMPIRfKc85Ds4nCASX-47" target="HASMPIRfKc85Ds4nCASX-58">
          <mxGeometry relative="1" as="geometry" />
        </mxCell>
        <mxCell id="HASMPIRfKc85Ds4nCASX-47" value="Libros" style="whiteSpace=wrap;html=1;align=center;" vertex="1" parent="1">
          <mxGeometry x="70" y="40" width="100" height="40" as="geometry" />
        </mxCell>
        <mxCell id="HASMPIRfKc85Ds4nCASX-99" style="edgeStyle=orthogonalEdgeStyle;rounded=0;orthogonalLoop=1;jettySize=auto;html=1;entryX=0.5;entryY=0;entryDx=0;entryDy=0;" edge="1" parent="1" source="HASMPIRfKc85Ds4nCASX-49" target="HASMPIRfKc85Ds4nCASX-47">
          <mxGeometry relative="1" as="geometry" />
        </mxCell>
        <mxCell id="HASMPIRfKc85Ds4nCASX-49" value="Título" style="ellipse;whiteSpace=wrap;html=1;align=center;" vertex="1" parent="1">
          <mxGeometry x="-50" y="-60" width="100" height="40" as="geometry" />
        </mxCell>
        <mxCell id="HASMPIRfKc85Ds4nCASX-98" style="edgeStyle=orthogonalEdgeStyle;rounded=0;orthogonalLoop=1;jettySize=auto;html=1;entryX=0.25;entryY=0;entryDx=0;entryDy=0;" edge="1" parent="1" source="HASMPIRfKc85Ds4nCASX-50" target="HASMPIRfKc85Ds4nCASX-47">
          <mxGeometry relative="1" as="geometry" />
        </mxCell>
        <mxCell id="HASMPIRfKc85Ds4nCASX-50" value="ISBN (PK)" style="ellipse;whiteSpace=wrap;html=1;align=center;fontStyle=4;" vertex="1" parent="1">
          <mxGeometry x="-40" y="-10" width="100" height="40" as="geometry" />
        </mxCell>
        <mxCell id="HASMPIRfKc85Ds4nCASX-96" style="edgeStyle=orthogonalEdgeStyle;rounded=0;orthogonalLoop=1;jettySize=auto;html=1;" edge="1" parent="1" source="HASMPIRfKc85Ds4nCASX-51">
          <mxGeometry relative="1" as="geometry">
            <mxPoint x="110" y="90" as="targetPoint" />
          </mxGeometry>
        </mxCell>
        <mxCell id="HASMPIRfKc85Ds4nCASX-51" value="Autor" style="ellipse;whiteSpace=wrap;html=1;align=center;" vertex="1" parent="1">
          <mxGeometry x="-40" y="120" width="100" height="40" as="geometry" />
        </mxCell>
        <mxCell id="HASMPIRfKc85Ds4nCASX-97" style="edgeStyle=orthogonalEdgeStyle;rounded=0;orthogonalLoop=1;jettySize=auto;html=1;entryX=0;entryY=0.5;entryDx=0;entryDy=0;" edge="1" parent="1" source="HASMPIRfKc85Ds4nCASX-52" target="HASMPIRfKc85Ds4nCASX-47">
          <mxGeometry relative="1" as="geometry" />
        </mxCell>
        <mxCell id="HASMPIRfKc85Ds4nCASX-52" value="Año de publicación" style="ellipse;whiteSpace=wrap;html=1;align=center;" vertex="1" parent="1">
          <mxGeometry x="-70" y="50" width="100" height="40" as="geometry" />
        </mxCell>
        <mxCell id="HASMPIRfKc85Ds4nCASX-80" style="edgeStyle=orthogonalEdgeStyle;rounded=0;orthogonalLoop=1;jettySize=auto;html=1;entryX=1;entryY=0.5;entryDx=0;entryDy=0;" edge="1" parent="1" source="HASMPIRfKc85Ds4nCASX-78" target="HASMPIRfKc85Ds4nCASX-58">
          <mxGeometry relative="1" as="geometry" />
        </mxCell>
        <mxCell id="HASMPIRfKc85Ds4nCASX-53" value="Usuario" style="whiteSpace=wrap;html=1;align=center;" vertex="1" parent="1">
          <mxGeometry x="650" y="40" width="100" height="40" as="geometry" />
        </mxCell>
        <mxCell id="HASMPIRfKc85Ds4nCASX-87" style="edgeStyle=orthogonalEdgeStyle;rounded=0;orthogonalLoop=1;jettySize=auto;html=1;entryX=1;entryY=0;entryDx=0;entryDy=0;" edge="1" parent="1" source="HASMPIRfKc85Ds4nCASX-54" target="HASMPIRfKc85Ds4nCASX-53">
          <mxGeometry relative="1" as="geometry" />
        </mxCell>
        <mxCell id="HASMPIRfKc85Ds4nCASX-54" value="Nombre" style="ellipse;whiteSpace=wrap;html=1;align=center;" vertex="1" parent="1">
          <mxGeometry x="780" y="10" width="100" height="40" as="geometry" />
        </mxCell>
        <mxCell id="HASMPIRfKc85Ds4nCASX-86" style="edgeStyle=orthogonalEdgeStyle;rounded=0;orthogonalLoop=1;jettySize=auto;html=1;entryX=0.75;entryY=0;entryDx=0;entryDy=0;" edge="1" parent="1" source="HASMPIRfKc85Ds4nCASX-55" target="HASMPIRfKc85Ds4nCASX-53">
          <mxGeometry relative="1" as="geometry" />
        </mxCell>
        <mxCell id="HASMPIRfKc85Ds4nCASX-55" value="ID_Usuario" style="ellipse;whiteSpace=wrap;html=1;align=center;fontStyle=4;" vertex="1" parent="1">
          <mxGeometry x="780" y="-60" width="100" height="40" as="geometry" />
        </mxCell>
        <mxCell id="HASMPIRfKc85Ds4nCASX-56" value="Dirección" style="ellipse;whiteSpace=wrap;html=1;align=center;" vertex="1" parent="1">
          <mxGeometry x="780" y="80" width="100" height="40" as="geometry" />
        </mxCell>
        <mxCell id="HASMPIRfKc85Ds4nCASX-89" style="edgeStyle=orthogonalEdgeStyle;rounded=0;orthogonalLoop=1;jettySize=auto;html=1;entryX=0.5;entryY=1;entryDx=0;entryDy=0;" edge="1" parent="1" source="HASMPIRfKc85Ds4nCASX-57" target="HASMPIRfKc85Ds4nCASX-53">
          <mxGeometry relative="1" as="geometry" />
        </mxCell>
        <mxCell id="HASMPIRfKc85Ds4nCASX-57" value="Teléfono" style="ellipse;whiteSpace=wrap;html=1;align=center;" vertex="1" parent="1">
          <mxGeometry x="780" y="140" width="100" height="40" as="geometry" />
        </mxCell>
        <mxCell id="HASMPIRfKc85Ds4nCASX-58" value="Préstamo" style="whiteSpace=wrap;html=1;align=center;" vertex="1" parent="1">
          <mxGeometry x="364" y="80" width="100" height="40" as="geometry" />
        </mxCell>
        <mxCell id="HASMPIRfKc85Ds4nCASX-95" style="edgeStyle=orthogonalEdgeStyle;rounded=0;orthogonalLoop=1;jettySize=auto;html=1;entryX=1;entryY=0;entryDx=0;entryDy=0;" edge="1" parent="1" source="HASMPIRfKc85Ds4nCASX-59" target="HASMPIRfKc85Ds4nCASX-58">
          <mxGeometry relative="1" as="geometry" />
        </mxCell>
        <mxCell id="HASMPIRfKc85Ds4nCASX-59" value="Fecha préstamo" style="ellipse;whiteSpace=wrap;html=1;align=center;" vertex="1" parent="1">
          <mxGeometry x="500" y="-40" width="100" height="40" as="geometry" />
        </mxCell>
        <mxCell id="HASMPIRfKc85Ds4nCASX-100" style="edgeStyle=orthogonalEdgeStyle;rounded=0;orthogonalLoop=1;jettySize=auto;html=1;entryX=0;entryY=0.25;entryDx=0;entryDy=0;" edge="1" parent="1" source="HASMPIRfKc85Ds4nCASX-60" target="HASMPIRfKc85Ds4nCASX-58">
          <mxGeometry relative="1" as="geometry" />
        </mxCell>
        <mxCell id="HASMPIRfKc85Ds4nCASX-60" value="ID_Prestamo" style="ellipse;whiteSpace=wrap;html=1;align=center;fontStyle=4;" vertex="1" parent="1">
          <mxGeometry x="230" y="-50" width="100" height="40" as="geometry" />
        </mxCell>
        <mxCell id="HASMPIRfKc85Ds4nCASX-92" style="edgeStyle=orthogonalEdgeStyle;rounded=0;orthogonalLoop=1;jettySize=auto;html=1;entryX=0.5;entryY=0;entryDx=0;entryDy=0;" edge="1" parent="1" source="HASMPIRfKc85Ds4nCASX-61" target="HASMPIRfKc85Ds4nCASX-58">
          <mxGeometry relative="1" as="geometry" />
        </mxCell>
        <mxCell id="HASMPIRfKc85Ds4nCASX-61" value="Fecha devolución" style="ellipse;whiteSpace=wrap;html=1;align=center;" vertex="1" parent="1">
          <mxGeometry x="320" y="-105" width="100" height="45" as="geometry" />
        </mxCell>
        <mxCell id="HASMPIRfKc85Ds4nCASX-62" value="ID_Usuario (FK)" style="ellipse;whiteSpace=wrap;html=1;align=center;" vertex="1" parent="1">
          <mxGeometry x="380" y="-180" width="100" height="40" as="geometry" />
        </mxCell>
        <mxCell id="HASMPIRfKc85Ds4nCASX-94" style="edgeStyle=orthogonalEdgeStyle;rounded=0;orthogonalLoop=1;jettySize=auto;html=1;" edge="1" parent="1" source="HASMPIRfKc85Ds4nCASX-63">
          <mxGeometry relative="1" as="geometry">
            <mxPoint x="440" y="30" as="targetPoint" />
          </mxGeometry>
        </mxCell>
        <mxCell id="HASMPIRfKc85Ds4nCASX-63" value="ISBN (FK)" style="ellipse;whiteSpace=wrap;html=1;align=center;fontStyle=4;" vertex="1" parent="1">
          <mxGeometry x="490" y="-110" width="100" height="40" as="geometry" />
        </mxCell>
        <mxCell id="HASMPIRfKc85Ds4nCASX-77" value="Puede" style="shape=rhombus;perimeter=rhombusPerimeter;whiteSpace=wrap;html=1;align=center;" vertex="1" parent="1">
          <mxGeometry x="200" y="30" width="120" height="60" as="geometry" />
        </mxCell>
        <mxCell id="HASMPIRfKc85Ds4nCASX-81" value="" style="edgeStyle=orthogonalEdgeStyle;rounded=0;orthogonalLoop=1;jettySize=auto;html=1;entryX=1;entryY=0.5;entryDx=0;entryDy=0;" edge="1" parent="1" source="HASMPIRfKc85Ds4nCASX-53" target="HASMPIRfKc85Ds4nCASX-78">
          <mxGeometry relative="1" as="geometry">
            <mxPoint x="650" y="60" as="sourcePoint" />
            <mxPoint x="464" y="60" as="targetPoint" />
          </mxGeometry>
        </mxCell>
        <mxCell id="HASMPIRfKc85Ds4nCASX-78" value="Tener" style="shape=rhombus;perimeter=rhombusPerimeter;whiteSpace=wrap;html=1;align=center;" vertex="1" parent="1">
          <mxGeometry x="500" y="30" width="120" height="60" as="geometry" />
        </mxCell>
        <mxCell id="HASMPIRfKc85Ds4nCASX-88" style="edgeStyle=orthogonalEdgeStyle;rounded=0;orthogonalLoop=1;jettySize=auto;html=1;entryX=0.89;entryY=1.025;entryDx=0;entryDy=0;entryPerimeter=0;" edge="1" parent="1" source="HASMPIRfKc85Ds4nCASX-56" target="HASMPIRfKc85Ds4nCASX-53">
          <mxGeometry relative="1" as="geometry" />
        </mxCell>
        <mxCell id="HASMPIRfKc85Ds4nCASX-93" style="edgeStyle=orthogonalEdgeStyle;rounded=0;orthogonalLoop=1;jettySize=auto;html=1;entryX=0.64;entryY=0.025;entryDx=0;entryDy=0;entryPerimeter=0;" edge="1" parent="1" source="HASMPIRfKc85Ds4nCASX-62" target="HASMPIRfKc85Ds4nCASX-58">
          <mxGeometry relative="1" as="geometry" />
        </mxCell>
      </root>
    </mxGraphModel>
  </diagram>
</mxfile>
